<svg xmlns="http://www.w3.org/2000/svg" fill-rule="evenodd" stroke-linejoin="round" stroke-miterlimit="2" clip-rule="evenodd" viewBox="0 0 512 512"><path fill="#1868db" fill-rule="nonzero" d="M490.8 467 271.1 27.7c-4.3-9.5-8.6-11.3-13.8-11.3-4.3 0-9.5 1.8-14.7 10.4-31.1 49.3-45 106.4-45 166 0 83 42.4 161 104.7 286.3 6.9 13.9 12 16.5 24.2 16.5h152.2c11.2 0 17.3-4.4 17.3-13 0-4.3-.9-7-5.2-15.6M171.7 259.5c-17.3-26-22.5-27.7-26.8-27.7s-7 1.7-14.7 17.3L20.3 468.8c-3.4 6.9-4.3 9.5-4.3 13 0 6.8 6 13.8 19 13.8h154.8c10.4 0 18.2-8.7 22.5-25.1 5.2-20.8 7-39 7-60.5 0-60.6-26.9-119.4-47.6-150.5"/></svg>