<svg xmlns="http://www.w3.org/2000/svg" xml:space="preserve" id="Layer_1" x="0" y="0" viewBox="0 0 122.9 122.9"><style>.st1{fill:#185abc}.st3{fill:#8ab4f8}</style><path d="M122.9 61.4A61.4 61.4 0 1 0 0 61.4a61.4 61.4 0 0 0 122.8 0" style="fill:#1a73e8"/><path d="M83.8 88H42c-6 0-11.2-4.6-11.2-10.5v3.4C30.8 86.9 36 92 42 92h41.8c6 0 11.2-5.2 11.2-11v-3.5c0 6-5.2 10.5-11.2 10.5m-53-30v-4.8L23 40.3a3 3 0 0 1-.6-2v5.5q0 .7.5 1.6z" class="st1"/><path d="M83.8 36.3H25.2c-2.3 0-3.7 2-2 4.2l7.6 13.3v23.7c0 6 4.4 11.1 10.4 11.1h42.6c6 0 11.1-5.1 11.1-11.1v-30c0-6.1-5-11.2-11-11.2" style="fill:#fff"/><path d="M83.1 53H42.7c-1.8 0-3.5-1-3.5-2.7s1.7-2.8 3.5-2.8H83c1.8 0 3.5 1 3.5 2.8S84.9 53 83.1 53m0 11.2H42.7c-1.8 0-3.5-1-3.5-2.8s1.7-2.8 3.5-2.8H83c1.8 0 3.5 1 3.5 2.8s-1.7 2.8-3.5 2.8M72 75.4H42.6c-1.8 0-3.5-1-3.5-2.8s1.7-2.8 3.5-2.8H72c1.8 0 3.5 1.1 3.5 2.8s-1.7 2.8-3.5 2.8" class="st3"/><path d="M122.9 61A61.4 61.4 0 0 1 0 61v.5a61.4 61.4 0 1 0 122.8 0z" class="st1"/><path d="M81 3.2Q71.7 0 61.4 0C27.4 0 0 27.5 0 61.4v.4a61.4 61.4 0 0 1 122.8 0v-.4c0-27-17.5-50-41.8-58.2" class="st3"/></svg>