<svg xmlns="http://www.w3.org/2000/svg" xml:space="preserve" viewBox="0 0 122.9 109.8"><path d="m9.3 94.1 5.4 9.4q1.7 3 4.7 4.6l19.3-33.5H0q0 3.4 1.7 6.3z" style="fill:#1967d2"/><path d="M61.4 35.2 42.1 1.7a13 13 0 0 0-4.7 4.6l-35.7 62Q0 71.2 0 74.6h38.7z" style="fill:#34a853"/><path d="M103.5 108.1q3-1.7 4.7-4.6l2.2-4L121.2 81q1.7-3 1.7-6.3H84.2l8.2 16.2z" style="fill:#ea4335"/><path d="M61.4 35.2 80.8 1.7Q77.8 0 74.5 0h-26A13 13 0 0 0 42 1.7z" style="fill:#188038"/><path d="M84.2 74.6H38.7l-19.3 33.5q2.9 1.7 6.3 1.7h71.5a13 13 0 0 0 6.3-1.7z" style="fill:#4285f4"/><path d="m103.3 37.3-17.9-31q-1.6-3-4.6-4.6L61.5 35.2l22.7 39.4h38.6q0-3.4-1.7-6.3z" style="fill:#fbbc04"/></svg>