<svg xmlns="http://www.w3.org/2000/svg" xml:space="preserve" viewBox="0 0 122.9 92.1"><path d="M8.4 92.1h19.5V44.7L0 23.7v60.1c0 4.6 3.8 8.3 8.4 8.3" style="fill:#4285f4"/><path d="M95 92.1h19.5c4.7 0 8.4-3.8 8.4-8.3v-60l-28 20.9z" style="fill:#34a853"/><path d="M95 8.4v36.3l27.9-21v-11a12.6 12.6 0 0 0-20.1-10z" style="fill:#fbbc04"/><path d="M27.9 44.7V8.4l33.5 25.2L95 8.4v36.3L61.4 69.8z" style="fill:#ea4335"/><path d="M0 12.6v11.2l28 20.9V8.4l-8-5.9a12.6 12.6 0 0 0-20 10" style="fill:#c5221f"/></svg>