<svg xmlns="http://www.w3.org/2000/svg" data-name="Layer 1" viewBox="0 0 509.1 509.1"><defs><radialGradient id="a" cx="1031" cy="-3574.1" r="2.9" gradientTransform="matrix(176 0 0 176 -181383.7 629121)" gradientUnits="userSpaceOnUse"><stop offset="0" stop-color="#fff"/><stop offset="1" stop-color="#fff" stop-opacity="0"/></radialGradient></defs><title>google-earth</title><path d="M175.5 307.6C88.8 192.8-.3 280.1 23 360.3A254.7 254.7 0 0 0 360.5 486a255 255 0 0 0 107.9-93.2c-67.1 62.8-189 52.3-292.9-85.2" style="fill:#255fdb"/><path d="M253.1 228.6C133.8 47.6 0 144 0 254.6a253 253 0 0 0 23.1 106.1c-15.8-75 70.3-132.7 150.4-25.2C290 491.7 404.2 464.2 468.1 393.2A254 254 0 0 0 507 288.7v.5c-27.4 85.2-148.5 99-253.8-60.6" style="fill:#4285f4"/><path d="M334.9 147.6c-88.6-146.2-201-133-277-54.7A254 254 0 0 0 0 254.6c8-107 137.4-181.5 254.5 0 104.2 161.5 233.9 119.5 252.3 35v-.7a215 215 0 0 0 2-34.7v-11.6c-45 32.3-104.3 19.8-174-95Z" style="fill:#91bfff"/><path d="M335.5 173.6c81.2 130.5 151.1 97.1 173.5 69.2a253 253 0 0 0-9.4-57.6c-37.8.8-46.6-5.5-83.8-62.2C358.8 35.8 287.2-23 162 17.4A256 256 0 0 0 57.9 93c86-79.2 191.6-57.7 277.6 80.6" style="fill:#c4e1ff"/><path d="M410.2 134.2c37.1 56.8 59.7 59.7 89.5 51a255 255 0 0 0-315-175.4Q173 13.1 162 17.4C273.9-17.8 353.2 47 410.2 134.2" style="fill:#f5f5f5"/><circle cx="254.5" cy="254.6" r="254.5" style="fill-opacity:.1;fill:url(#a)"/><path d="M254.5 3c140 0 253.8 113 254.6 253v-1.4a254.5 254.5 0 1 0-509.1 0v1.5A254.5 254.5 0 0 1 254.5 3" style="fill:#fff;fill-opacity:.2"/><path d="M254.5 506.2c-140 0-253.7-113-254.5-253v1.4a254.6 254.6 0 0 0 509 0v-1.4c-.7 140-114.5 253-254.5 253" style="fill-opacity:.2;fill:#1a237e"/></svg>