<svg xmlns="http://www.w3.org/2000/svg" fill-rule="evenodd" clip-rule="evenodd" image-rendering="optimizeQuality" shape-rendering="geometricPrecision" text-rendering="geometricPrecision" viewBox="0 0 242424 333334"><defs><mask id="d"><linearGradient id="a" x1="200291" x2="200291" y1="91174.4" y2="176107" gradientUnits="userSpaceOnUse"><stop offset="0" stop-color="#fff" stop-opacity="0"/><stop offset="1" stop-color="#fff" stop-opacity=".2"/></linearGradient><path fill="url(#a)" d="M158007 84111h84568v99059h-84568z"/></mask><mask id="f"><radialGradient id="b" cx="0" cy="0" r="0" fx="0" fy="0" gradientUnits="userSpaceOnUse"><stop offset="0" stop-color="#fff" stop-opacity="0"/><stop offset="1" stop-color="#fff" stop-opacity=".1"/></radialGradient><path fill="url(#b)" d="M-150-150h242724v333634H-150z"/></mask><radialGradient id="e" cx="9696.9" cy="10000" r="166667" fx="9696.9" fy="10000" gradientUnits="userSpaceOnUse"><stop offset="0" stop-color="#fff"/><stop offset="1" stop-color="#fff"/></radialGradient><linearGradient id="c" x1="200291" x2="200291" y1="94137" y2="173145" gradientUnits="userSpaceOnUse"><stop offset="0" stop-color="#311a91"/><stop offset="1" stop-color="#311a91"/></linearGradient></defs><g fill-rule="nonzero"><path fill="#673ab6" d="M151516 0H22726C10228 0 0 10228 0 22727v287879c0 12494 10228 22728 22726 22728h196971c12494 0 22728-10233 22728-22728V90909l-53037-37880L151516 1z"/><path fill="#f0f0f0" d="M98482 257569h83333v-15144H98482zm0-90904v15151h83333v-15151zm-18937 7578c0 6268-5094 11363-11365 11363-6269 0-11363-5096-11363-11363 0-6270 5094-11365 11363-11365 6270 0 11365 5094 11365 11365m0 37872c0 6272-5094 11365-11365 11365-6269 0-11363-5093-11363-11365 0-6266 5094-11363 11363-11363 6270 0 11365 5097 11365 11363m0 37881c0 6273-5094 11365-11365 11365-6269 0-11363-5092-11363-11365 0-6272 5094-11363 11363-11363 6270 0 11365 5091 11365 11363m18937-30299h83333v-15155H98482z"/><path fill="url(#c)" d="m158158 84261 84266 84242V90909z" mask="url(#d)"/><path fill="#b39cdb" d="M151516 0v68181c0 12557 10167 22728 22726 22728h68182z"/><path fill="#fff" fill-opacity=".2" d="M22726 0C10228 0 0 10228 0 22727v1893C0 12122 10228 1894 22726 1894h128790V1H22726z"/><path fill="#311a91" fill-opacity=".2" d="M219697 331433H22726C10228 331433 0 321209 0 308705v1900c0 12494 10228 22728 22726 22728h196971c12494 0 22728-10233 22728-22728v-1900c0 12504-10233 22728-22728 22728"/><path fill="#311a91" fill-opacity=".1" d="M174243 90909c-12559 0-22726-10171-22726-22728v1893c0 12556 10167 22728 22726 22728h68182v-1893z"/><path fill="url(#e)" d="M151516 0H22726C10228 0 0 10228 0 22727v287879c0 12494 10228 22728 22726 22728h196971c12494 0 22728-10233 22728-22728V90909L151517 0z" mask="url(#f)"/></g></svg>