<svg xmlns="http://www.w3.org/2000/svg" fill="none" viewBox="0 0 512 512"><path fill="#e8710a" d="m94.4 201.5-50.8-50.7a149 149 0 0 0 0 210.8l50.8-50.8A78 78 0 0 1 72 256a78 78 0 0 1 22.5-54.6"/><path fill="#f9ab00" d="M254.9 150.8a149 149 0 0 0 0 210.8l51.7-50.8a77.6 77.6 0 0 1 56-125.8 78 78 0 0 1 52.8 16.5l50.8-50.8a149 149 0 0 0-48.3-32.5 149 149 0 0 0-114.1-.4 149 149 0 0 0-48.5 32.2l-.4.4zm-14.1 223-37.7-63a77.6 77.6 0 0 1-109.2 0l-50.3 50.8a149 149 0 0 0 194.7 14zm-197.1-223 50.8 50.7a77.6 77.6 0 0 1 108.7 0l36.9-63.2-2.2-1.6a149 149 0 0 0-194.2 14"/><path fill="#e8710a" d="m466.1 150.8-50.8 50.7a77.6 77.6 0 0 1-5.7 103 77.6 77.6 0 0 1-103 6.3l-51.8 50.8a149 149 0 0 0 252.3-106 149 149 0 0 0-41.5-104.8z"/></svg>