<svg xmlns="http://www.w3.org/2000/svg" viewBox="0 0 24 24"><defs><radialGradient id="b" cx="1.5" cy="12.8" r="9.7" fx="1.5" fy="12.8" gradientTransform="matrix(.8032 0 0 1.0842 2.5 -.3)" gradientUnits="userSpaceOnUse"><stop offset=".4" stop-color="#ffcf09"/><stop offset=".7" stop-color="#ffcf09" stop-opacity=".7"/><stop offset="1" stop-color="#ffcf09" stop-opacity="0"/></radialGradient><radialGradient id="c" cx="14.3" cy="23.3" r="11.9" fx="14.3" fy="23.3" gradientTransform="matrix(1.3272 0 0 1.0073 -3.4 -.7)" gradientUnits="userSpaceOnUse"><stop offset=".4" stop-color="#34a853"/><stop offset=".7" stop-color="#34a853" stop-opacity=".7"/><stop offset="1" stop-color="#34a853" stop-opacity="0"/></radialGradient><linearGradient id="d" x1="23.6" x2="12.1" y1="6.3" y2="20.3" gradientUnits="userSpaceOnUse"><stop offset=".7" stop-color="#4285f4"/><stop offset=".9" stop-color="#4285f4" stop-opacity="0"/></linearGradient><clipPath id="a"><path fill="none" d="M22.4 10H12v4.3h6a5 5 0 0 1-2.3 3.3q-1.5 1-3.7 1a7 7 0 0 1-6.2-4.5A6.6 6.6 0 0 1 12 5.4 6 6 0 0 1 16.2 7l3.2-3q-3-3-7.4-3a11 11 0 0 0-9.8 16 11 11 0 0 0 9.8 6q4.6 0 7.3-2.7 3.2-3 3.3-8z"/></clipPath></defs><path fill="#fc4c53" d="M22.4 10H12v4.3h6a5 5 0 0 1-2.3 3.3q-1.5 1-3.7 1a7 7 0 0 1-6.2-4.5A6.6 6.6 0 0 1 12 5.4 6 6 0 0 1 16.2 7l3.2-3q-3-3-7.4-3a11 11 0 0 0-9.8 16 11 11 0 0 0 9.8 6q4.6 0 7.3-2.7 3.2-3 3.3-8z"/><g clip-path="url(#a)"><ellipse cx="3.6" cy="13.6" fill="url(#b)" rx="7.8" ry="10.5"/><ellipse cx="15.5" cy="22.8" fill="url(#c)" rx="15.8" ry="12" transform="rotate(-7.1 15.5 22.8)"/><path fill="url(#d)" d="m11.1 8.3.5 5.6.6 3.7 7.4 6.9 8.6-16z"/></g></svg>