<svg xmlns="http://www.w3.org/2000/svg" xml:space="preserve" viewBox="0 0 122.9 122.9"><path d="M93.8 29.1H29.1v64.7h64.7z" style="fill:#fff"/><path d="m93.8 122.9 29.1-29.1H93.8z" style="fill:#f72a25"/><path d="M122.9 29.1H93.8v64.7h29.1z" style="fill:#fbbc04"/><path d="M93.8 93.8H29.1v29.1h64.7z" style="fill:#34a853"/><path d="M0 93.8v19.4c0 5.3 4.3 9.7 9.7 9.7h19.4V93.8z" style="fill:#188038"/><path d="M122.9 29.1V9.7c0-5.4-4.4-9.7-9.7-9.7H93.8v29.1z" style="fill:#1967d2"/><path d="M93.8 0H9.7A9.7 9.7 0 0 0 0 9.7v84h29.1V29.2h64.7z" style="fill:#4285f4"/><path d="M42.4 79.3q-3.7-2.5-5-7.2l5.6-2.3q.8 3 2.6 4.5 2 1.5 4.6 1.6 2.8 0 4.8-1.7t2-4.2q0-2.7-2.1-4.4a8 8 0 0 0-5.3-1.6h-3.2v-5.6h3a7 7 0 0 0 4.5-1.4q1.8-1.5 1.8-4 0-2.2-1.7-3.6C52.3 48 51.6 48 50 48q-2.5 0-4 1.3t-2 3.3l-5.6-2.3q1-3.2 4-5.6t7.6-2.3q3.4 0 6.1 1.3 2.8 1.3 4.3 3.6t1.5 5.3-1.4 5a10 10 0 0 1-3.5 3.2v.3q2.8 1.2 4.5 3.5a9 9 0 0 1 1.8 5.7q0 3.3-1.7 5.9-1.7 2.5-4.6 4a15 15 0 0 1-14.5-1m34.4-27.9L70.7 56l-3.1-4.7 11-8H83v37.6h-6z" style="fill:#1a73e8"/></svg>