<svg xmlns="http://www.w3.org/2000/svg" xml:space="preserve" viewBox="0 0 122.9 122.9"><path d="M30.7 28c17 0 30.7 13.7 30.7 30.7v2.8H2.8A3 3 0 0 1 0 58.7C0 41.7 13.8 28 30.7 28" style="fill:#f6b704"/><path d="M95 30.7c0 17-13.9 30.7-30.8 30.7h-2.8V2.8c0-1.5 1.3-2.8 2.8-2.8 17 0 30.7 13.8 30.7 30.7" style="fill:#e54335"/><path d="M92.2 95c-17 0-30.8-13.8-30.8-30.7v-2.9h58.7c1.5 0 2.8 1.3 2.8 2.8 0 17-13.8 30.8-30.7 30.8" style="fill:#4280ef"/><path d="M28 92.2c0-17 13.7-30.8 30.7-30.8h2.7v58.7c0 1.5-1.2 2.7-2.8 2.8-17 0-30.6-13.8-30.6-30.7" style="fill:#34a353"/></svg>