<svg xmlns="http://www.w3.org/2000/svg" viewBox="0 0 495.7 502.4"><defs><style>.b{fill:#34a853}</style></defs><title>google-voice</title><path d="M261.3 100.5V221a13.5 13.5 0 0 0 13.4 13.5h120.6c0-37-8.2-77.2-32.6-101.5s-64.4-32.5-101.4-32.5m131.4 399.4c-56.3 9.2-124.4-7.5-189.7-46.4l22-48.9 49.5-22.9 77.8 44.4ZM2.5 109.7C-6.7 166 9.7 234.1 49 299.4l50.3-23.5 21.4-48.3-42.1-68.9Z" style="fill:#00832d"/><path d="M281.4 0a20 20 0 0 0-20.1 20v80.5a134 134 0 0 1 134 134h80.3a20 20 0 0 0 20.1-20.1C495.7 96 399.7 0 281.4 0m195.3 453.7a26.6 26.6 0 0 0 1-37.6l-96.9-103.3a26.7 26.7 0 0 0-37.4.4l-68.7 68.5 118 118c32-4.7 55.8-18.3 77.5-40Z" class="b"/><path d="M49.1 299.4c17.7 29.3 41.2 58.8 67.9 85.5s56.9 50.7 86.2 68.4l71.7-71.6-154.3-154" class="b"/><path d="m172.3 177.6 11-10.6a34 34 0 0 0 0-47.6l-91-91a34 34 0 0 0-47.6 0l-3.2 2.2a143 143 0 0 0-39 79.1l118.1 118Z" class="b"/></svg>