<svg xmlns="http://www.w3.org/2000/svg" fill-rule="evenodd" stroke-linejoin="round" stroke-miterlimit="2" clip-rule="evenodd" viewBox="0 0 512 512"><g transform="translate(-70.7 -70.7)scale(3.40278)"><circle cx="144.1" cy="144" r="16" fill="#34a853"/><circle cx="96.1" cy="104" r="24" fill="#4285f4"/><path fill="#ea4335" fill-rule="nonzero" d="M24 135.2A33 33 0 0 0 56.8 168H96v-16l-40.1-.1c-8.8 0-15.9-8.2-15.9-17.9v-18H24z"/><path fill="#fbbc05" fill-rule="nonzero" d="M168 72.8A33 33 0 0 0 135.2 40H116l20 16c8.8 0 16 8.3 16 18v30h16z"/><path fill="#4285f4" fill-rule="nonzero" d="M112 24H80L68 40H56.8A33 33 0 0 0 24 72.8V92h16V74c0-9.7 7.2-18 16-18h80z"/></g></svg>