<svg xmlns="http://www.w3.org/2000/svg" fill-rule="evenodd" clip-rule="evenodd" image-rendering="optimizeQuality" shape-rendering="geometricPrecision" text-rendering="geometricPrecision" viewBox="0 0 333333 287879"><defs><mask id="id0"><linearGradient id="id1" x1="246054" x2="246054" y1="287879" y2="257576" gradientUnits="userSpaceOnUse"><stop offset="0" stop-color="#fff" stop-opacity=".2"/><stop offset="1" stop-color="#fff" stop-opacity="0"/></linearGradient><path fill="url(#id1)" d="M196693 257426h98722v30603h-98722z"/></mask><mask id="id2"><radialGradient id="id3" cx="-1213540" cy="-1071900" r="17594400" fx="-1213540" fy="-1071900" gradientUnits="userSpaceOnUse"><stop offset="0" stop-color="#fff" stop-opacity=".1"/><stop offset="1" stop-color="#fff" stop-opacity="0"/><stop offset="1" stop-color="#fff"/></radialGradient><path fill="url(#id3)" d="M-150-150h333633v288179H-150z"/></mask><radialGradient id="id5" cx="13333.5" cy="8636.2" r="166667" fx="13333.5" fy="8636.2" gradientUnits="userSpaceOnUse"><stop offset="0" stop-color="#fff"/><stop offset="1" stop-color="#fff"/><stop offset="1" stop-color="#fff"/></radialGradient><linearGradient id="id4" x1="246054" x2="246054" y1="287879" y2="257576" gradientUnits="userSpaceOnUse"><stop offset="0" stop-color="#bf360c"/><stop offset="1" stop-color="#bf360c"/></linearGradient><style>.fil5{fill:#fff;fill-opacity:.2}</style></defs><g id="Layer_x0020_1"><g id="google-classroom.svg"><path fill="#0f9d58" d="M30303 30303h272727v227273H30303z"/><path fill="#57bb8a" d="M227272 151515c9407 0 17046-7639 17046-17045 0-9407-7639-17046-17046-17046-9406 0-17045 7639-17045 17046 0 9406 7639 17045 17045 17045m0 11364c-18245 0-37879 9659-37879 21654v12437h75758v-12437c0-11995-19634-21654-37879-21654m-121212-11364c9406 0 17045-7639 17045-17045 0-9407-7639-17046-17045-17046-9407 0-17046 7639-17046 17046 0 9406 7639 17045 17046 17045m0 11364c-18245 0-37879 9659-37879 21654v12437h75758v-12437c0-11995-19634-21654-37879-21654"/><path fill="#f7f7f7" d="M166667 136364c12563 0 22727-10164 22727-22728 0-12563-10164-22727-22727-22727s-22727 10164-22727 22727 10164 22728 22727 22728m0 15151c-25568 0-53030 13573-53030 30303v15152h106061v-15152c0-16730-27462-30303-53030-30303z"/><path fill="#f1f1f1" d="M196970 242424h68182v15152h-68182z"/><path fill="#f4b400" d="M310606 0H22727C10164 0 0 10164 0 22727v242424c0 12563 10164 22727 22727 22727h287879c12563 0 22727-10164 22727-22727V22727C333333 10164 323169 0 310606 0m-7576 257576H30302V30304h272728z"/><path d="M310606 0H22727C10164 0 0 10164 0 22727v1894C0 12058 10164 1894 22727 1894h287879c12563 0 22727 10164 22727 22727v-1894C333333 10164 323169 0 310606 0" class="fil5"/><path fill="#bf360c" fill-opacity=".2" d="M310606 285985H22727C10164 285985 0 275821 0 263258v1894c0 12563 10164 22727 22727 22727h287879c12563 0 22727-10164 22727-22727v-1894c0 12563-10164 22727-22727 22727"/><path fill="url(#id4)" d="M265025 257576h-68182l30303 30303h68119z" mask="url(#id0)"/><path fill="#263238" fill-opacity=".2" d="M30303 28409h272727v1894H30303z"/><path d="M30303 257576h272727v1894H30303z" class="fil5"/><path fill="url(#id5)" d="M310606 0H22727C10164 0 0 10164 0 22727v242424c0 12563 10164 22727 22727 22727h287879c12563 0 22727-10164 22727-22727V22727C333333 10164 323169 0 310606 0" mask="url(#id2)"/></g></g></svg>