<svg xmlns="http://www.w3.org/2000/svg" fill-rule="evenodd" stroke-linejoin="round" stroke-miterlimit="2" clip-rule="evenodd" viewBox="0 0 512 512"><path fill="#fff" d="M220.3 368.6c0 11.5-9 20.5-20.6 20.5h-85.5c-11.5 0-20.5-9-20.5-20.5v-254c0-11.5 9-20.5 20.5-20.5h85.5c11.5 0 20.6 9 20.6 20.5zm197.2-116.7c0 11.5-9 20.5-19.7 20.5h-86.3c-11.5 0-20.6-9-20.6-20.5V114.6c0-11.5 9-20.5 20.6-20.5h85.4c11.6 0 20.6 9 20.6 20.5z"/><path fill="url(#a)" fill-rule="nonzero" d="M55.3 40.6H7.8A7.4 7.4 0 0 0 .4 48v47.6c0 4.1 3.3 7.4 7.4 7.4h47.5c4.1 0 7.4-3.3 7.4-7.4V48c0-4.1-3.3-7.4-7.4-7.4M27.2 85.5q-.2 2.3-2.5 2.5H14.3a2.5 2.5 0 0 1-2.5-2.5V54.6c0-1.4 1.1-2.5 2.5-2.5h10.4c1.4 0 2.5 1.1 2.5 2.5zm24-14.2c0 1.4-1.1 2.5-2.4 2.5H38.3a2.5 2.5 0 0 1-2.5-2.5V54.6c0-1.4 1.1-2.5 2.5-2.5h10.4c1.4 0 2.5 1.1 2.5 2.5z" transform="translate(-3.3 -334)scale(8.2183)"/><defs><linearGradient id="a" x1="0" x2="1" y1="0" y2="0" gradientTransform="rotate(-90 67.3 35.7)scale(62.39)" gradientUnits="userSpaceOnUse"><stop offset="0" stop-color="#0052cc"/><stop offset="1" stop-color="#2684ff"/></linearGradient></defs></svg>