<svg xmlns="http://www.w3.org/2000/svg" fill-rule="evenodd" clip-rule="evenodd" image-rendering="optimizeQuality" shape-rendering="geometricPrecision" text-rendering="geometricPrecision" viewBox="0 0 242424 333334"><defs><linearGradient id="b" x1="200291" x2="200291" y1="94137" y2="173145" gradientUnits="userSpaceOnUse"><stop offset="0" stop-color="#bf360c"/><stop offset="1" stop-color="#bf360c"/></linearGradient><mask id="c"><linearGradient id="a" x1="200291" x2="200291" y1="91174.4" y2="176107" gradientUnits="userSpaceOnUse"><stop offset="0" stop-color="#fff" stop-opacity="0"/><stop offset="1" stop-color="#fff" stop-opacity=".2"/></linearGradient><path fill="url(#a)" d="M158007 84111h84568v99059h-84568z"/></mask></defs><g fill-rule="nonzero"><path fill="#f4b300" d="M151516 0H22726C10228 0 0 10228 0 22726v287880c0 12494 10228 22728 22726 22728h196971c12494 0 22728-10234 22728-22728V90909l-53037-37880L151516 1z"/><path fill="#f0f0f0" d="M170452 151515H71970c-6252 0-11363 5113-11363 11363v98483c0 6251 5112 11363 11363 11363h98482c6252 0 11363-5112 11363-11363v-98483c0-6250-5111-11363-11363-11363m-3792 87118H75756v-53027h90904z"/><path fill="url(#b)" d="m158158 84261 84266 84242V90909z" mask="url(#c)"/><path fill="#f9da80" d="M151516 0v68181c0 12557 10167 22728 22726 22728h68182L151515 0z"/><path fill="#fff" fill-opacity=".1" d="M151516 0v1893l89008 89016h1900z"/><path fill="#fff" fill-opacity=".2" d="M22726 0C10228 0 0 10228 0 22726v1893C0 12121 10228 1893 22726 1893h128790V0z"/><path fill="#bf360c" fill-opacity=".2" d="M219697 331433H22726C10228 331433 0 321209 0 308705v1900c0 12494 10228 22728 22726 22728h196971c12494 0 22728-10234 22728-22728v-1900c0 12504-10233 22728-22728 22728"/><path fill="#bf360c" fill-opacity=".1" d="M174243 90909c-12559 0-22726-10171-22726-22728v1893c0 12557 10167 22728 22726 22728h68182v-1893z"/></g></svg>