<svg xmlns="http://www.w3.org/2000/svg" fill-rule="evenodd" stroke-linejoin="round" stroke-miterlimit="2" clip-rule="evenodd" viewBox="0 0 512 512"><path fill="#1868db" fill-rule="nonzero" d="M0 128A128 128 0 0 1 128 0h256a128 128 0 0 1 128 128v256a128 128 0 0 1-128 128H128A128 128 0 0 1 0 384z"/><path fill="#fff" fill-rule="nonzero" d="M406 245h-86.2l74.7-43.1-16.4-28.4-74.6 43 43-74.6-28.4-16.4-43 74.7V114h-32.8v86.2l-43.1-74.7-28.4 16.4 43 74.6-74.5-43-16.4 28.4 74.6 43h-86.2v32.8h86.2l-74.6 43.1 16.4 28.4 74.6-43-43.1 74.5 28.4 16.4 43-74.6v86.2h32.9v-86.2l43 74.6 28.4-16.4-43-74.6 74.6 43 16.3-28.3-74.6-43H406zm-147.3 61a44.7 44.7 0 1 1 0-89.6 44.7 44.7 0 0 1 0 89.5"/></svg>