<svg xmlns="http://www.w3.org/2000/svg" fill-rule="evenodd" stroke-linejoin="round" stroke-miterlimit="2" clip-rule="evenodd" viewBox="0 0 512 512"><path fill="#1868db" fill-rule="nonzero" d="M0 128A128 128 0 0 1 128 0h256a128 128 0 0 1 128 128v256a128 128 0 0 1-128 128H128A128 128 0 0 1 0 384z"/><path fill="#fff" fill-rule="nonzero" d="M370.6 304.3c-79-38.2-102.1-43.9-135.4-43.9-39 0-72.4 16.3-102.1 62l-4.9 7.4c-4 6.1-4.9 8.3-4.9 11s1.4 4.8 6.2 7.9l50.2 31.2a13 13 0 0 0 7.1 2.6c2.7 0 4.4-1.3 7.1-5.3l8-12.3c12.4-18.9 23.5-25 37.7-25 12.5 0 27.1 3.5 45.3 12.3l52.4 24.6c5.3 2.6 11 1.3 13.7-4.9l24.9-54.4c2.7-6.2.9-10.1-5.3-13.2m-230.4-96.1c79 38.2 102 43.9 135.4 43.9 39 0 72.3-16.3 102-62l5-7.4c4-6.2 4.8-8.4 4.8-11s-1.3-4.8-6.2-7.9l-50.1-31.2a13 13 0 0 0-7.1-2.6c-2.7 0-4.5 1.3-7.1 5.3l-8 12.3c-12.5 18.8-23.6 25-37.8 25-12.4 0-27-3.5-45.2-12.3l-52.4-24.6c-5.3-2.6-11.1-1.3-13.8 4.8L135 195c-2.7 6.1-1 10 5.3 13.2"/></svg>