<svg xmlns="http://www.w3.org/2000/svg" fill-rule="evenodd" stroke-linejoin="round" stroke-miterlimit="2" clip-rule="evenodd" viewBox="0 0 512 512"><path fill="#bf63f3" fill-rule="nonzero" d="M231.2 22.8c16.7-9.2 37-9 53.5.5l130 75 30.8 17.7a55 55 0 0 1 27.3 47.1v185.6a54 54 0 0 1-27.3 47l-120.8 69.8.7-2.2a71 71 0 0 0 3.5-21.8V255.9a71 71 0 0 0-35.7-61.7l-22.4-12.9-67.7-39v-72q0-8.4 2.5-16.4a54 54 0 0 1 24.6-30.5z"/><path fill="#bf63f3" fill-rule="nonzero" d="M190.3 46.5 69.4 116.2a54 54 0 0 0-27.2 47.1V349a55 55 0 0 0 27.2 47l28.7 16.6 132.1 76.2a54.5 54.5 0 0 0 79.1-30.6 54 54 0 0 0 2.6-16.5v-71.8l-70-40.4-20.1-11.6a71 71 0 0 1-35.7-61.7V70.5a71 71 0 0 1 4.2-24"/><path fill="#1868db" d="m242 329.4-144 83L69.5 396a55 55 0 0 1-27.2-47.1V163.3a54 54 0 0 1 27.2-47l120.9-69.8-.8 2.3a71 71 0 0 0-3.4 21.7v185.6a71 71 0 0 0 35.7 61.7z"/><path fill="#bf63f3" d="m270.8 181.3-67.7-39v-72q0-8.4 2.5-16.4a54 54 0 0 1 24.6-30.5l1-.6c16.7-9.2 37-9 53.5.5l130 75z"/><path fill="#fca700" d="m445.5 116-30.8-17.7-143.9 83 22.4 12.9a71 71 0 0 1 35.7 61.7v185.6a71 71 0 0 1-3.5 21.8l-.7 2.2 120.8-69.7a54 54 0 0 0 27.3-47.1V163a55 55 0 0 0-27.3-47"/><path fill="#82b536" d="m242 329.4-144 83 132.2 76.3a54.5 54.5 0 0 0 79.1-30.6 54 54 0 0 0 2.6-16.5v-71.8z"/></svg>