<svg xmlns="http://www.w3.org/2000/svg" fill-rule="evenodd" stroke-linejoin="round" stroke-miterlimit="2" clip-rule="evenodd" viewBox="0 0 512 512"><path fill="#1868db" fill-rule="nonzero" d="M0 128A128 128 0 0 1 128 0h256a128 128 0 0 1 128 128v256a128 128 0 0 1-128 128H128A128 128 0 0 1 0 384z"/><path fill="#fff" fill-rule="nonzero" d="M189.5 324h-28.8c-43.5 0-74.7-24.4-74.7-60.3h155c8.1 0 13.3 5.3 13.3 12.7v143.4c-38.8 0-64.8-28.9-64.8-69.1zm76.7-71.2h-28.9c-43.5 0-74.7-24-74.7-59.9h155.1c8 0 13.7 4.8 13.7 12.2v143.4c-38.8 0-65.2-28.8-65.2-69zm77-70.8h-28.8c-43.5 0-74.7-24.5-74.7-60.3h155c8.1 0 13.3 5.2 13.3 12.2v143.4c-38.7 0-64.8-28.9-64.8-69z"/></svg>