<svg xmlns="http://www.w3.org/2000/svg" fill-rule="evenodd" clip-rule="evenodd" image-rendering="optimizeQuality" shape-rendering="geometricPrecision" text-rendering="geometricPrecision" viewBox="0 0 466 512"><g fill-rule="nonzero"><path fill="#ea4335" d="M199.9 237.8 1.4 470.2A58.5 58.5 0 0 0 57.2 512q16.8 0 29.3-8.4l244.2-139.5z"/><path fill="#fbbc04" d="m434 205.1-104.7-60-111.7 110.2 113 108.8 104.7-58.6a58 58 0 0 0 30.7-50.2c-1.4-21-14-40.4-32-50.2"/><path fill="#34a853" d="M199.4 273.5 329.3 145 87.9 8.4A56 56 0 0 0 57.2 0 57 57 0 0 0 1.4 41.9z"/><path fill="#4285f4" d="M1.4 41.9C0 46 0 51.6 0 57.2v397.6c0 5.6 0 9.8 1.4 15.4l216.3-214.9z"/></g></svg>