<svg xmlns="http://www.w3.org/2000/svg" xml:space="preserve" id="svg10" x="0" y="0" viewBox="0 0 464.8 464.8"><style>.st1{fill:#1759bb}.st2{fill:#fff}</style><circle cx="232.4" cy="232.4" r="232.4" style="fill:#1972e6"/><path d="M343.9 333.4v-19.7a29 29 0 0 0-6.8-18.7c-4.1-4.9-9.4-10.6-13.7-13.9-19-14.4-46.8-23.6-79.5-26.3-11.9-1-16.2-.9-28.5.5-39.2 4.5-69.2 18.1-84.8 38.4l-1.7 2.2a29 29 0 0 0-6 17.7v19.9a30.6 30.6 0 0 0 30.6 30.6h159.9a31 31 0 0 0 30.5-30.7" class="st1"/><circle cx="232.4" cy="174.5" r="51" class="st1"/><path d="M343.9 320.4v-19.7a29 29 0 0 0-6.8-18.7c-4.1-4.9-9.4-10.6-13.7-13.9-19-14.4-46.8-23.6-79.5-26.3-11.9-1-16.2-.9-28.5.5-39.2 4.5-69.2 18.1-84.8 38.4l-1.7 2.2a29 29 0 0 0-6 17.7v19.9a30.6 30.6 0 0 0 30.6 30.6h159.9a30.7 30.7 0 0 0 30.5-30.7" class="st2"/><circle cx="232.4" cy="161.5" r="51" class="st2"/></svg>