<svg xmlns="http://www.w3.org/2000/svg" width="200" height="200" viewBox="0 0 44 50"><defs><linearGradient id="a" x1="30.3" x2="14.9" y1="8.6" y2="44.7" gradientUnits="userSpaceOnUse"><stop stop-color="#3f8b3d"/><stop offset=".6" stop-color="#3f873f"/><stop offset=".9" stop-color="#3da92e"/><stop offset="1" stop-color="#3dae2b"/></linearGradient><linearGradient id="b" x1="18.8" x2="68" y1="26.8" y2=".4" gradientUnits="userSpaceOnUse"><stop offset=".1" stop-color="#3f873f"/><stop offset=".4" stop-color="#52a044"/><stop offset=".7" stop-color="#64b749"/><stop offset=".9" stop-color="#6abf4b"/></linearGradient><linearGradient id="d" x1=".3" x2="44" y1="24.5" y2="24.5" gradientUnits="userSpaceOnUse"><stop offset=".1" stop-color="#6abf4b"/><stop offset=".3" stop-color="#64b749"/><stop offset=".6" stop-color="#52a044"/><stop offset=".9" stop-color="#3f873f"/></linearGradient><clipPath id="c"><path d="M22.9.4q-1.2-.6-2.4 0L1.2 11.7q-1.2.7-1.2 2v22.6q0 1.3 1.2 2l19.3 11.2q1.2.8 2.4 0l19.3-11.2q1.2-.7 1.2-2V13.7q0-1.3-1.2-2z"/></clipPath></defs><path fill="url(#a)" d="M22.9.4q-1.2-.6-2.4 0L1.2 11.7q-1.2.7-1.2 2v22.6q0 1.3 1.2 2l19.3 11.2q1.2.8 2.4 0l19.3-11.2q1.2-.7 1.2-2V13.7q0-1.3-1.2-2z"/><path fill="url(#b)" d="m21.7-1 21.5 12.9-21.5 39.2-21.5-13z" clip-path="url(#c)"/><path fill="url(#d)" d="M21.7-1 .2 11.9l21.5 39.2 21.5-13z" clip-path="url(#c)"/></svg>