<svg xmlns="http://www.w3.org/2000/svg" xml:space="preserve" viewBox="0 0 512 512"><path fill="#fff" d="M255.7 383.7a127.3 127.3 0 1 0 0-254.6 127.3 127.3 0 0 0 0 254.6"/><linearGradient id="a" x1="283.3" x2="62.8" y1="18.9" y2="400.7" gradientTransform="matrix(1 0 0 -1 0 514)" gradientUnits="userSpaceOnUse"><stop offset="0" style="stop-color:#1e8e3e"/><stop offset="1" style="stop-color:#34a853"/></linearGradient><path fill="url(#a)" d="M145.5 320 35.3 129.3A254.5 254.5 0 0 0 255.8 511L366 320a127.2 127.2 0 0 1-220.5 0"/><linearGradient id="b" x1="218.6" x2="439" y1="2.3" y2="384.2" gradientTransform="matrix(1 0 0 -1 0 514)" gradientUnits="userSpaceOnUse"><stop offset="0" style="stop-color:#fcc934"/><stop offset="1" style="stop-color:#fbbc04"/></linearGradient><path fill="url(#b)" d="M366 320 255.7 511a254.4 254.4 0 0 0 220.5-382H255.7A127.2 127.2 0 0 1 366 320"/><path fill="#1a73e8" d="M255.7 357.2a100.8 100.8 0 1 0 0-201.5 100.8 100.8 0 0 0 0 201.5"/><linearGradient id="c" x1="35.3" x2="476.2" y1="353" y2="353" gradientTransform="matrix(1 0 0 -1 0 514)" gradientUnits="userSpaceOnUse"><stop offset="0" style="stop-color:#d93025"/><stop offset="1" style="stop-color:#ea4335"/></linearGradient><path fill="url(#c)" d="M255.7 129.1h220.5a254.5 254.5 0 0 0-441 0l110.3 191a127.2 127.2 0 0 1 110.2-191"/></svg>